solid CATIA STL
  facet normal  0.000000e+000  0.000000e+000 -9.999999e-001
    outer loop
      vertex -1.772373e+000  9.266573e-001  2.000000e+001
      vertex -3.874409e+000  9.944612e-001  2.000000e+001
      vertex -1.557536e+000  1.254625e+000  2.000000e+001
    endloop
  endfacet
  facet normal  0.000000e+000  0.000000e+000 -9.999999e-001
    outer loop
      vertex  3.949846e+000  6.314378e-001  2.000000e+001
      vertex  1.908503e+000  5.980113e-001  2.000000e+001
      vertex  1.755165e+000  9.588511e-001  2.000000e+001
    endloop
  endfacet
  facet normal  0.000000e+000  0.000000e+000 -1.000000e+000
    outer loop
      vertex -3.371278e+000 -2.152785e+000  2.000000e+001
      vertex -3.633015e+000 -1.673678e+000  2.000000e+001
      vertex -9.266573e-001 -1.772373e+000  2.000000e+001
    endloop
  endfacet
  facet normal  0.000000e+000  -0.000000e+000 -1.000000e+000
    outer loop
      vertex -3.371278e+000 -2.152785e+000  2.000000e+001
      vertex -9.266573e-001 -1.772373e+000  2.000000e+001
      vertex -5.630791e-001 -1.919099e+000  2.000000e+001
    endloop
  endfacet
  facet normal  0.000000e+000  -0.000000e+000 -1.000000e+000
    outer loop
      vertex -3.371278e+000 -2.152785e+000  2.000000e+001
      vertex -5.630791e-001 -1.919099e+000  2.000000e+001
      vertex -1.778620e-001 -1.992076e+000  2.000000e+001
    endloop
  endfacet
  facet normal  0.000000e+000  0.000000e+000 -1.000000e+000
    outer loop
      vertex -3.371278e+000 -2.152785e+000  2.000000e+001
      vertex -1.778620e-001 -1.992076e+000  2.000000e+001
      vertex -1.853893e-001 -3.995702e+000  2.000000e+001
    endloop
  endfacet
  facet normal  0.000000e+000  0.000000e+000 -1.000000e+000
    outer loop
      vertex -3.371278e+000 -2.152785e+000  2.000000e+001
      vertex -1.853893e-001 -3.995702e+000  2.000000e+001
      vertex -7.277439e-001 -3.933242e+000  2.000000e+001
    endloop
  endfacet
  facet normal  0.000000e+000  0.000000e+000 -1.000000e+000
    outer loop
      vertex -3.371278e+000 -2.152785e+000  2.000000e+001
      vertex -7.277439e-001 -3.933242e+000  2.000000e+001
      vertex -1.256542e+000 -3.797513e+000  2.000000e+001
    endloop
  endfacet
  facet normal  0.000000e+000  0.000000e+000 -1.000000e+000
    outer loop
      vertex -3.371278e+000 -2.152785e+000  2.000000e+001
      vertex -1.256542e+000 -3.797513e+000  2.000000e+001
      vertex -1.761933e+000 -3.591043e+000  2.000000e+001
    endloop
  endfacet
  facet normal  0.000000e+000  0.000000e+000 -1.000000e+000
    outer loop
      vertex -3.371278e+000 -2.152785e+000  2.000000e+001
      vertex -1.761933e+000 -3.591043e+000  2.000000e+001
      vertex -2.234503e+000 -3.317680e+000  2.000000e+001
    endloop
  endfacet
  facet normal  0.000000e+000  0.000000e+000 -1.000000e+000
    outer loop
      vertex -3.371278e+000 -2.152785e+000  2.000000e+001
      vertex -2.234503e+000 -3.317680e+000  2.000000e+001
      vertex -2.665448e+000 -2.982514e+000  2.000000e+001
    endloop
  endfacet
  facet normal  0.000000e+000  0.000000e+000 -1.000000e+000
    outer loop
      vertex -3.371278e+000 -2.152785e+000  2.000000e+001
      vertex -2.665448e+000 -2.982514e+000  2.000000e+001
      vertex -3.046741e+000 -2.591789e+000  2.000000e+001
    endloop
  endfacet
  facet normal  -0.000000e+000  0.000000e+000 -1.000000e+000
    outer loop
      vertex  2.141903e-001 -1.988498e+000  2.000000e+001
      vertex  3.462433e+000 -2.002887e+000  2.000000e+001
      vertex  3.157458e+000 -2.455700e+000  2.000000e+001
    endloop
  endfacet
  facet normal  -0.000000e+000  0.000000e+000 -1.000000e+000
    outer loop
      vertex  2.141903e-001 -1.988498e+000  2.000000e+001
      vertex  3.157458e+000 -2.455700e+000  2.000000e+001
      vertex  2.793664e+000 -2.862768e+000  2.000000e+001
    endloop
  endfacet
  facet normal  -0.000000e+000  0.000000e+000 -1.000000e+000
    outer loop
      vertex  2.141903e-001 -1.988498e+000  2.000000e+001
      vertex  2.793664e+000 -2.862768e+000  2.000000e+001
      vertex  2.377831e+000 -3.216508e+000  2.000000e+001
    endloop
  endfacet
  facet normal  -0.000000e+000  0.000000e+000 -1.000000e+000
    outer loop
      vertex  2.141903e-001 -1.988498e+000  2.000000e+001
      vertex  2.377831e+000 -3.216508e+000  2.000000e+001
      vertex  1.917702e+000 -3.510330e+000  2.000000e+001
    endloop
  endfacet
  facet normal  -0.000000e+000  0.000000e+000 -1.000000e+000
    outer loop
      vertex  2.141903e-001 -1.988498e+000  2.000000e+001
      vertex  1.917702e+000 -3.510330e+000  2.000000e+001
      vertex  1.421851e+000 -3.738762e+000  2.000000e+001
    endloop
  endfacet
  facet normal  -0.000000e+000  0.000000e+000 -1.000000e+000
    outer loop
      vertex  2.141903e-001 -1.988498e+000  2.000000e+001
      vertex  1.421851e+000 -3.738762e+000  2.000000e+001
      vertex  8.995128e-001 -3.897547e+000  2.000000e+001
    endloop
  endfacet
  facet normal  -0.000000e+000  0.000000e+000 -1.000000e+000
    outer loop
      vertex  2.141903e-001 -1.988498e+000  2.000000e+001
      vertex  8.995128e-001 -3.897547e+000  2.000000e+001
      vertex  3.604187e-001 -3.983729e+000  2.000000e+001
    endloop
  endfacet
  facet normal  -0.000000e+000  0.000000e+000 -1.000000e+000
    outer loop
      vertex  2.141903e-001 -1.988498e+000  2.000000e+001
      vertex  3.604187e-001 -3.983729e+000  2.000000e+001
      vertex -1.853893e-001 -3.995702e+000  2.000000e+001
    endloop
  endfacet
  facet normal  0.000000e+000  0.000000e+000 -1.000000e+000
    outer loop
      vertex  2.141903e-001 -1.988498e+000  2.000000e+001
      vertex -1.853893e-001 -3.995702e+000  2.000000e+001
      vertex -1.778620e-001 -1.992076e+000  2.000000e+001
    endloop
  endfacet
  facet normal  0.000000e+000  -0.000000e+000 -1.000000e+000
    outer loop
      vertex -3.462433e+000  2.002887e+000  2.000000e+001
      vertex -3.157458e+000  2.455700e+000  2.000000e+001
      vertex -2.793664e+000  2.862768e+000  2.000000e+001
    endloop
  endfacet
  facet normal  0.000000e+000  -0.000000e+000 -9.999999e-001
    outer loop
      vertex -3.462433e+000  2.002887e+000  2.000000e+001
      vertex -2.793664e+000  2.862768e+000  2.000000e+001
      vertex -2.377831e+000  3.216508e+000  2.000000e+001
    endloop
  endfacet
  facet normal  0.000000e+000  -0.000000e+000 -1.000000e+000
    outer loop
      vertex -3.462433e+000  2.002887e+000  2.000000e+001
      vertex -2.377831e+000  3.216508e+000  2.000000e+001
      vertex -1.917702e+000  3.510330e+000  2.000000e+001
    endloop
  endfacet
  facet normal  0.000000e+000  -0.000000e+000 -1.000000e+000
    outer loop
      vertex -3.462433e+000  2.002887e+000  2.000000e+001
      vertex -1.917702e+000  3.510330e+000  2.000000e+001
      vertex -1.421851e+000  3.738762e+000  2.000000e+001
    endloop
  endfacet
  facet normal  0.000000e+000  -0.000000e+000 -1.000000e+000
    outer loop
      vertex -3.462433e+000  2.002887e+000  2.000000e+001
      vertex -1.421851e+000  3.738762e+000  2.000000e+001
      vertex -8.995128e-001  3.897547e+000  2.000000e+001
    endloop
  endfacet
  facet normal  0.000000e+000  -0.000000e+000 -1.000000e+000
    outer loop
      vertex -3.462433e+000  2.002887e+000  2.000000e+001
      vertex -8.995128e-001  3.897547e+000  2.000000e+001
      vertex -3.604187e-001  3.983729e+000  2.000000e+001
    endloop
  endfacet
  facet normal  0.000000e+000  -0.000000e+000 -1.000000e+000
    outer loop
      vertex -3.462433e+000  2.002887e+000  2.000000e+001
      vertex -3.604187e-001  3.983729e+000  2.000000e+001
      vertex -2.141903e-001  1.988498e+000  2.000000e+001
    endloop
  endfacet
  facet normal  -0.000000e+000  0.000000e+000 -1.000000e+000
    outer loop
      vertex -3.462433e+000  2.002887e+000  2.000000e+001
      vertex -2.141903e-001  1.988498e+000  2.000000e+001
      vertex -3.702910e+000  1.512764e+000  2.000000e+001
    endloop
  endfacet
  facet normal  0.000000e+000  0.000000e+000 -1.000000e+000
    outer loop
      vertex -3.702910e+000  1.512764e+000  2.000000e+001
      vertex -2.141903e-001  1.988498e+000  2.000000e+001
      vertex -5.980113e-001  1.908503e+000  2.000000e+001
    endloop
  endfacet
  facet normal  0.000000e+000  0.000000e+000 -1.000000e+000
    outer loop
      vertex -3.702910e+000  1.512764e+000  2.000000e+001
      vertex -5.980113e-001  1.908503e+000  2.000000e+001
      vertex -9.588511e-001  1.755165e+000  2.000000e+001
    endloop
  endfacet
  facet normal  0.000000e+000  0.000000e+000 -1.000000e+000
    outer loop
      vertex -3.702910e+000  1.512764e+000  2.000000e+001
      vertex -9.588511e-001  1.755165e+000  2.000000e+001
      vertex -1.282843e+000  1.534378e+000  2.000000e+001
    endloop
  endfacet
  facet normal  0.000000e+000  0.000000e+000 -1.000000e+000
    outer loop
      vertex -3.702910e+000  1.512764e+000  2.000000e+001
      vertex -1.282843e+000  1.534378e+000  2.000000e+001
      vertex -1.557536e+000  1.254625e+000  2.000000e+001
    endloop
  endfacet
  facet normal  -0.000000e+000  0.000000e+000 -1.000000e+000
    outer loop
      vertex -3.702910e+000  1.512764e+000  2.000000e+001
      vertex -1.557536e+000  1.254625e+000  2.000000e+001
      vertex -3.874409e+000  9.944612e-001  2.000000e+001
    endloop
  endfacet
  facet normal  0.000000e+000  0.000000e+000 -1.000000e+000
    outer loop
      vertex  1.778620e-001  1.992076e+000  2.000000e+001
      vertex -2.141903e-001  1.988498e+000  2.000000e+001
      vertex -3.604187e-001  3.983729e+000  2.000000e+001
    endloop
  endfacet
  facet normal  0.000000e+000  0.000000e+000 -1.000000e+000
    outer loop
      vertex  1.778620e-001  1.992076e+000  2.000000e+001
      vertex -3.604187e-001  3.983729e+000  2.000000e+001
      vertex  1.853893e-001  3.995702e+000  2.000000e+001
    endloop
  endfacet
  facet normal  0.000000e+000  -0.000000e+000 -1.000000e+000
    outer loop
      vertex  1.778620e-001  1.992076e+000  2.000000e+001
      vertex  1.853893e-001  3.995702e+000  2.000000e+001
      vertex  7.277439e-001  3.933242e+000  2.000000e+001
    endloop
  endfacet
  facet normal  0.000000e+000  -0.000000e+000 -1.000000e+000
    outer loop
      vertex  1.778620e-001  1.992076e+000  2.000000e+001
      vertex  7.277439e-001  3.933242e+000  2.000000e+001
      vertex  1.256542e+000  3.797513e+000  2.000000e+001
    endloop
  endfacet
  facet normal  0.000000e+000  -0.000000e+000 -1.000000e+000
    outer loop
      vertex  1.778620e-001  1.992076e+000  2.000000e+001
      vertex  1.256542e+000  3.797513e+000  2.000000e+001
      vertex  1.761933e+000  3.591043e+000  2.000000e+001
    endloop
  endfacet
  facet normal  0.000000e+000  -0.000000e+000 -9.999999e-001
    outer loop
      vertex  1.778620e-001  1.992076e+000  2.000000e+001
      vertex  1.761933e+000  3.591043e+000  2.000000e+001
      vertex  2.234503e+000  3.317680e+000  2.000000e+001
    endloop
  endfacet
  facet normal  0.000000e+000  -0.000000e+000 -1.000000e+000
    outer loop
      vertex  1.778620e-001  1.992076e+000  2.000000e+001
      vertex  2.234503e+000  3.317680e+000  2.000000e+001
      vertex  2.665448e+000  2.982514e+000  2.000000e+001
    endloop
  endfacet
  facet normal  0.000000e+000  -0.000000e+000 -1.000000e+000
    outer loop
      vertex  1.778620e-001  1.992076e+000  2.000000e+001
      vertex  2.665448e+000  2.982514e+000  2.000000e+001
      vertex  3.046741e+000  2.591789e+000  2.000000e+001
    endloop
  endfacet
  facet normal  0.000000e+000  -0.000000e+000 -9.999999e-001
    outer loop
      vertex  1.778620e-001  1.992076e+000  2.000000e+001
      vertex  3.046741e+000  2.591789e+000  2.000000e+001
      vertex  3.371278e+000  2.152785e+000  2.000000e+001
    endloop
  endfacet
  facet normal  0.000000e+000  -0.000000e+000 -1.000000e+000
    outer loop
      vertex  1.778620e-001  1.992076e+000  2.000000e+001
      vertex  3.371278e+000  2.152785e+000  2.000000e+001
      vertex  3.633015e+000  1.673678e+000  2.000000e+001
    endloop
  endfacet
  facet normal  0.000000e+000  0.000000e+000 -1.000000e+000
    outer loop
      vertex  1.778620e-001  1.992076e+000  2.000000e+001
      vertex  3.633015e+000  1.673678e+000  2.000000e+001
      vertex  5.630791e-001  1.919099e+000  2.000000e+001
    endloop
  endfacet
  facet normal  0.000000e+000  0.000000e+000 -1.000000e+000
    outer loop
      vertex  3.462433e+000 -2.002887e+000  2.000000e+001
      vertex  2.141903e-001 -1.988498e+000  2.000000e+001
      vertex  5.980113e-001 -1.908503e+000  2.000000e+001
    endloop
  endfacet
  facet normal  0.000000e+000  0.000000e+000 -1.000000e+000
    outer loop
      vertex  3.462433e+000 -2.002887e+000  2.000000e+001
      vertex  5.980113e-001 -1.908503e+000  2.000000e+001
      vertex  9.588511e-001 -1.755165e+000  2.000000e+001
    endloop
  endfacet
  facet normal  0.000000e+000  0.000000e+000 -1.000000e+000
    outer loop
      vertex  3.462433e+000 -2.002887e+000  2.000000e+001
      vertex  9.588511e-001 -1.755165e+000  2.000000e+001
      vertex  1.282843e+000 -1.534378e+000  2.000000e+001
    endloop
  endfacet
  facet normal  0.000000e+000  0.000000e+000 -1.000000e+000
    outer loop
      vertex  3.462433e+000 -2.002887e+000  2.000000e+001
      vertex  1.282843e+000 -1.534378e+000  2.000000e+001
      vertex  3.702910e+000 -1.512764e+000  2.000000e+001
    endloop
  endfacet
  facet normal  0.000000e+000  0.000000e+000 -1.000000e+000
    outer loop
      vertex -1.988498e+000 -2.141903e-001  2.000000e+001
      vertex -3.999038e+000 -8.771918e-002  2.000000e+001
      vertex -1.992076e+000  1.778620e-001  2.000000e+001
    endloop
  endfacet
  facet normal  -0.000000e+000  0.000000e+000 -1.000000e+000
    outer loop
      vertex -1.992076e+000  1.778620e-001  2.000000e+001
      vertex -3.999038e+000 -8.771918e-002  2.000000e+001
      vertex -3.973735e+000  4.576335e-001  2.000000e+001
    endloop
  endfacet
  facet normal  0.000000e+000  0.000000e+000 -1.000000e+000
    outer loop
      vertex -1.992076e+000  1.778620e-001  2.000000e+001
      vertex -3.973735e+000  4.576335e-001  2.000000e+001
      vertex -1.919099e+000  5.630791e-001  2.000000e+001
    endloop
  endfacet
  facet normal  -0.000000e+000  0.000000e+000 -1.000000e+000
    outer loop
      vertex -1.919099e+000  5.630791e-001  2.000000e+001
      vertex -3.973735e+000  4.576335e-001  2.000000e+001
      vertex -3.874409e+000  9.944612e-001  2.000000e+001
    endloop
  endfacet
  facet normal  0.000000e+000  0.000000e+000 -1.000000e+000
    outer loop
      vertex -1.919099e+000  5.630791e-001  2.000000e+001
      vertex -3.874409e+000  9.944612e-001  2.000000e+001
      vertex -1.772373e+000  9.266573e-001  2.000000e+001
    endloop
  endfacet
  facet normal  0.000000e+000  0.000000e+000 -9.999999e-001
    outer loop
      vertex -1.534378e+000 -1.282843e+000  2.000000e+001
      vertex -3.827076e+000 -1.163394e+000  2.000000e+001
      vertex -1.755165e+000 -9.588511e-001  2.000000e+001
    endloop
  endfacet
  facet normal  -0.000000e+000  0.000000e+000 -1.000000e+000
    outer loop
      vertex -1.755165e+000 -9.588511e-001  2.000000e+001
      vertex -3.827076e+000 -1.163394e+000  2.000000e+001
      vertex -3.949846e+000 -6.314378e-001  2.000000e+001
    endloop
  endfacet
  facet normal  0.000000e+000  0.000000e+000 -9.999999e-001
    outer loop
      vertex -1.755165e+000 -9.588511e-001  2.000000e+001
      vertex -3.949846e+000 -6.314378e-001  2.000000e+001
      vertex -1.908503e+000 -5.980113e-001  2.000000e+001
    endloop
  endfacet
  facet normal  -0.000000e+000  0.000000e+000 -1.000000e+000
    outer loop
      vertex -1.908503e+000 -5.980113e-001  2.000000e+001
      vertex -3.949846e+000 -6.314378e-001  2.000000e+001
      vertex -3.999038e+000 -8.771918e-002  2.000000e+001
    endloop
  endfacet
  facet normal  0.000000e+000  0.000000e+000 -1.000000e+000
    outer loop
      vertex -1.908503e+000 -5.980113e-001  2.000000e+001
      vertex -3.999038e+000 -8.771918e-002  2.000000e+001
      vertex -1.988498e+000 -2.141903e-001  2.000000e+001
    endloop
  endfacet
  facet normal  0.000000e+000  0.000000e+000 -1.000000e+000
    outer loop
      vertex -9.266573e-001 -1.772373e+000  2.000000e+001
      vertex -3.633015e+000 -1.673678e+000  2.000000e+001
      vertex -1.254625e+000 -1.557536e+000  2.000000e+001
    endloop
  endfacet
  facet normal  -0.000000e+000  0.000000e+000 -1.000000e+000
    outer loop
      vertex -1.254625e+000 -1.557536e+000  2.000000e+001
      vertex -3.633015e+000 -1.673678e+000  2.000000e+001
      vertex -3.827076e+000 -1.163394e+000  2.000000e+001
    endloop
  endfacet
  facet normal  0.000000e+000  0.000000e+000 -1.000000e+000
    outer loop
      vertex -1.254625e+000 -1.557536e+000  2.000000e+001
      vertex -3.827076e+000 -1.163394e+000  2.000000e+001
      vertex -1.534378e+000 -1.282843e+000  2.000000e+001
    endloop
  endfacet
  facet normal  0.000000e+000  0.000000e+000 -9.999999e-001
    outer loop
      vertex  5.630791e-001  1.919099e+000  2.000000e+001
      vertex  3.633015e+000  1.673678e+000  2.000000e+001
      vertex  9.266573e-001  1.772373e+000  2.000000e+001
    endloop
  endfacet
  facet normal  0.000000e+000  0.000000e+000 -1.000000e+000
    outer loop
      vertex  9.266573e-001  1.772373e+000  2.000000e+001
      vertex  3.633015e+000  1.673678e+000  2.000000e+001
      vertex  3.827076e+000  1.163394e+000  2.000000e+001
    endloop
  endfacet
  facet normal  0.000000e+000  0.000000e+000 -1.000000e+000
    outer loop
      vertex  9.266573e-001  1.772373e+000  2.000000e+001
      vertex  3.827076e+000  1.163394e+000  2.000000e+001
      vertex  1.254625e+000  1.557536e+000  2.000000e+001
    endloop
  endfacet
  facet normal  0.000000e+000  0.000000e+000 -1.000000e+000
    outer loop
      vertex  1.254625e+000  1.557536e+000  2.000000e+001
      vertex  3.827076e+000  1.163394e+000  2.000000e+001
      vertex  1.534378e+000  1.282843e+000  2.000000e+001
    endloop
  endfacet
  facet normal  0.000000e+000  0.000000e+000 -1.000000e+000
    outer loop
      vertex  1.534378e+000  1.282843e+000  2.000000e+001
      vertex  3.827076e+000  1.163394e+000  2.000000e+001
      vertex  3.949846e+000  6.314378e-001  2.000000e+001
    endloop
  endfacet
  facet normal  0.000000e+000  0.000000e+000 -1.000000e+000
    outer loop
      vertex  1.534378e+000  1.282843e+000  2.000000e+001
      vertex  3.949846e+000  6.314378e-001  2.000000e+001
      vertex  1.755165e+000  9.588511e-001  2.000000e+001
    endloop
  endfacet
  facet normal  0.000000e+000  -0.000000e+000 -9.999999e-001
    outer loop
      vertex  1.919099e+000 -5.630791e-001  2.000000e+001
      vertex  1.992076e+000 -1.778620e-001  2.000000e+001
      vertex  3.973735e+000 -4.576335e-001  2.000000e+001
    endloop
  endfacet
  facet normal  0.000000e+000  0.000000e+000 -1.000000e+000
    outer loop
      vertex  3.973735e+000 -4.576335e-001  2.000000e+001
      vertex  1.992076e+000 -1.778620e-001  2.000000e+001
      vertex  1.988498e+000  2.141903e-001  2.000000e+001
    endloop
  endfacet
  facet normal  0.000000e+000  0.000000e+000 -1.000000e+000
    outer loop
      vertex  3.973735e+000 -4.576335e-001  2.000000e+001
      vertex  1.988498e+000  2.141903e-001  2.000000e+001
      vertex  3.999038e+000  8.771918e-002  2.000000e+001
    endloop
  endfacet
  facet normal  0.000000e+000  0.000000e+000 -1.000000e+000
    outer loop
      vertex  3.999038e+000  8.771918e-002  2.000000e+001
      vertex  1.988498e+000  2.141903e-001  2.000000e+001
      vertex  1.908503e+000  5.980113e-001  2.000000e+001
    endloop
  endfacet
  facet normal  0.000000e+000  0.000000e+000 -1.000000e+000
    outer loop
      vertex  3.999038e+000  8.771918e-002  2.000000e+001
      vertex  1.908503e+000  5.980113e-001  2.000000e+001
      vertex  3.949846e+000  6.314378e-001  2.000000e+001
    endloop
  endfacet
  facet normal  0.000000e+000  -0.000000e+000 -1.000000e+000
    outer loop
      vertex  1.282843e+000 -1.534378e+000  2.000000e+001
      vertex  1.557536e+000 -1.254625e+000  2.000000e+001
      vertex  3.702910e+000 -1.512764e+000  2.000000e+001
    endloop
  endfacet
  facet normal  0.000000e+000  0.000000e+000 -1.000000e+000
    outer loop
      vertex  3.702910e+000 -1.512764e+000  2.000000e+001
      vertex  1.557536e+000 -1.254625e+000  2.000000e+001
      vertex  1.772373e+000 -9.266573e-001  2.000000e+001
    endloop
  endfacet
  facet normal  0.000000e+000  0.000000e+000 -1.000000e+000
    outer loop
      vertex  3.702910e+000 -1.512764e+000  2.000000e+001
      vertex  1.772373e+000 -9.266573e-001  2.000000e+001
      vertex  3.874409e+000 -9.944612e-001  2.000000e+001
    endloop
  endfacet
  facet normal  0.000000e+000  0.000000e+000 -1.000000e+000
    outer loop
      vertex  3.874409e+000 -9.944612e-001  2.000000e+001
      vertex  1.772373e+000 -9.266573e-001  2.000000e+001
      vertex  1.919099e+000 -5.630791e-001  2.000000e+001
    endloop
  endfacet
  facet normal  0.000000e+000  0.000000e+000 -1.000000e+000
    outer loop
      vertex  3.874409e+000 -9.944612e-001  2.000000e+001
      vertex  1.919099e+000 -5.630791e-001  2.000000e+001
      vertex  3.973735e+000 -4.576335e-001  2.000000e+001
    endloop
  endfacet
  facet normal  0.000000e+000  0.000000e+000 -1.000000e+000
    outer loop
      vertex  1.988498e+000  2.141903e-001  0.000000e+000
      vertex -1.919099e+000  5.630791e-001  0.000000e+000
      vertex  1.908503e+000  5.980113e-001  0.000000e+000
    endloop
  endfacet
  facet normal  -0.000000e+000  0.000000e+000 -1.000000e+000
    outer loop
      vertex  1.908503e+000  5.980113e-001  0.000000e+000
      vertex -1.919099e+000  5.630791e-001  0.000000e+000
      vertex -1.772373e+000  9.266573e-001  0.000000e+000
    endloop
  endfacet
  facet normal  0.000000e+000  0.000000e+000 -1.000000e+000
    outer loop
      vertex  1.908503e+000  5.980113e-001  0.000000e+000
      vertex -1.772373e+000  9.266573e-001  0.000000e+000
      vertex  1.755165e+000  9.588511e-001  0.000000e+000
    endloop
  endfacet
  facet normal  -0.000000e+000  0.000000e+000 -1.000000e+000
    outer loop
      vertex  1.755165e+000  9.588511e-001  0.000000e+000
      vertex -1.772373e+000  9.266573e-001  0.000000e+000
      vertex -1.557536e+000  1.254625e+000  0.000000e+000
    endloop
  endfacet
  facet normal  0.000000e+000  0.000000e+000 -1.000000e+000
    outer loop
      vertex  1.755165e+000  9.588511e-001  0.000000e+000
      vertex -1.557536e+000  1.254625e+000  0.000000e+000
      vertex  1.534378e+000  1.282843e+000  0.000000e+000
    endloop
  endfacet
  facet normal  -0.000000e+000  0.000000e+000 -1.000000e+000
    outer loop
      vertex  1.534378e+000  1.282843e+000  0.000000e+000
      vertex -1.557536e+000  1.254625e+000  0.000000e+000
      vertex -1.282843e+000  1.534378e+000  0.000000e+000
    endloop
  endfacet
  facet normal  0.000000e+000  0.000000e+000 -1.000000e+000
    outer loop
      vertex  1.534378e+000  1.282843e+000  0.000000e+000
      vertex -1.282843e+000  1.534378e+000  0.000000e+000
      vertex  1.254625e+000  1.557536e+000  0.000000e+000
    endloop
  endfacet
  facet normal  7.442364e-017 -8.154761e-015 -1.000000e+000
    outer loop
      vertex  1.254625e+000  1.557536e+000  0.000000e+000
      vertex -1.282843e+000  1.534378e+000  0.000000e+000
      vertex -9.588511e-001  1.755165e+000 -1.776357e-015
    endloop
  endfacet
  facet normal  9.291649e-016  1.418447e-015 -1.000000e+000
    outer loop
      vertex  1.254625e+000  1.557536e+000  0.000000e+000
      vertex -9.588511e-001  1.755165e+000 -1.776357e-015
      vertex  9.266573e-001  1.772373e+000  0.000000e+000
    endloop
  endfacet
  facet normal  8.547409e-016  9.573205e-015 -1.000000e+000
    outer loop
      vertex  9.266573e-001  1.772373e+000  0.000000e+000
      vertex -9.588511e-001  1.755165e+000 -1.776357e-015
      vertex -5.980113e-001  1.908503e+000  0.000000e+000
    endloop
  endfacet
  facet normal  0.000000e+000  0.000000e+000 -1.000000e+000
    outer loop
      vertex  9.266573e-001  1.772373e+000  0.000000e+000
      vertex -5.980113e-001  1.908503e+000  0.000000e+000
      vertex  5.630791e-001  1.919099e+000  0.000000e+000
    endloop
  endfacet
  facet normal  -0.000000e+000  0.000000e+000 -9.999999e-001
    outer loop
      vertex  5.630791e-001  1.919099e+000  0.000000e+000
      vertex -5.980113e-001  1.908503e+000  0.000000e+000
      vertex -2.141903e-001  1.988498e+000  0.000000e+000
    endloop
  endfacet
  facet normal  0.000000e+000  0.000000e+000 -1.000000e+000
    outer loop
      vertex  5.630791e-001  1.919099e+000  0.000000e+000
      vertex -2.141903e-001  1.988498e+000  0.000000e+000
      vertex  1.778620e-001  1.992076e+000  0.000000e+000
    endloop
  endfacet
  facet normal  -0.000000e+000  0.000000e+000 -1.000000e+000
    outer loop
      vertex -1.919099e+000  5.630791e-001  0.000000e+000
      vertex  1.988498e+000  2.141903e-001  0.000000e+000
      vertex -1.992076e+000  1.778620e-001  0.000000e+000
    endloop
  endfacet
  facet normal  0.000000e+000  0.000000e+000 -9.999999e-001
    outer loop
      vertex -1.992076e+000  1.778620e-001  0.000000e+000
      vertex  1.988498e+000  2.141903e-001  0.000000e+000
      vertex  1.992076e+000 -1.778620e-001  0.000000e+000
    endloop
  endfacet
  facet normal  -0.000000e+000  0.000000e+000 -9.999999e-001
    outer loop
      vertex -1.992076e+000  1.778620e-001  0.000000e+000
      vertex  1.992076e+000 -1.778620e-001  0.000000e+000
      vertex -1.988498e+000 -2.141903e-001  0.000000e+000
    endloop
  endfacet
  facet normal  0.000000e+000  0.000000e+000 -1.000000e+000
    outer loop
      vertex -1.988498e+000 -2.141903e-001  0.000000e+000
      vertex  1.992076e+000 -1.778620e-001  0.000000e+000
      vertex  1.919099e+000 -5.630791e-001  0.000000e+000
    endloop
  endfacet
  facet normal  -0.000000e+000  0.000000e+000 -1.000000e+000
    outer loop
      vertex -1.988498e+000 -2.141903e-001  0.000000e+000
      vertex  1.919099e+000 -5.630791e-001  0.000000e+000
      vertex -1.908503e+000 -5.980113e-001  0.000000e+000
    endloop
  endfacet
  facet normal  0.000000e+000  0.000000e+000 -1.000000e+000
    outer loop
      vertex -1.908503e+000 -5.980113e-001  0.000000e+000
      vertex  1.919099e+000 -5.630791e-001  0.000000e+000
      vertex  1.772373e+000 -9.266573e-001  0.000000e+000
    endloop
  endfacet
  facet normal  -0.000000e+000  0.000000e+000 -1.000000e+000
    outer loop
      vertex -1.908503e+000 -5.980113e-001  0.000000e+000
      vertex  1.772373e+000 -9.266573e-001  0.000000e+000
      vertex -1.755165e+000 -9.588511e-001  0.000000e+000
    endloop
  endfacet
  facet normal  0.000000e+000  0.000000e+000 -1.000000e+000
    outer loop
      vertex -1.755165e+000 -9.588511e-001  0.000000e+000
      vertex  1.772373e+000 -9.266573e-001  0.000000e+000
      vertex  1.557536e+000 -1.254625e+000  0.000000e+000
    endloop
  endfacet
  facet normal  -0.000000e+000  0.000000e+000 -1.000000e+000
    outer loop
      vertex -1.755165e+000 -9.588511e-001  0.000000e+000
      vertex  1.557536e+000 -1.254625e+000  0.000000e+000
      vertex -1.534378e+000 -1.282843e+000  0.000000e+000
    endloop
  endfacet
  facet normal  0.000000e+000  0.000000e+000 -1.000000e+000
    outer loop
      vertex -1.534378e+000 -1.282843e+000  0.000000e+000
      vertex  1.557536e+000 -1.254625e+000  0.000000e+000
      vertex  1.282843e+000 -1.534378e+000  0.000000e+000
    endloop
  endfacet
  facet normal  -0.000000e+000  0.000000e+000 -1.000000e+000
    outer loop
      vertex -1.534378e+000 -1.282843e+000  0.000000e+000
      vertex  1.282843e+000 -1.534378e+000  0.000000e+000
      vertex -1.254625e+000 -1.557536e+000  0.000000e+000
    endloop
  endfacet
  facet normal -7.442364e-017  8.154761e-015 -1.000000e+000
    outer loop
      vertex -1.254625e+000 -1.557536e+000  0.000000e+000
      vertex  1.282843e+000 -1.534378e+000  0.000000e+000
      vertex  9.588511e-001 -1.755165e+000 -1.776357e-015
    endloop
  endfacet
  facet normal -9.291649e-016 -1.418447e-015 -1.000000e+000
    outer loop
      vertex -1.254625e+000 -1.557536e+000  0.000000e+000
      vertex  9.588511e-001 -1.755165e+000 -1.776357e-015
      vertex -9.266573e-001 -1.772373e+000  0.000000e+000
    endloop
  endfacet
  facet normal -8.547409e-016 -9.573205e-015 -1.000000e+000
    outer loop
      vertex -9.266573e-001 -1.772373e+000  0.000000e+000
      vertex  9.588511e-001 -1.755165e+000 -1.776357e-015
      vertex  5.980113e-001 -1.908503e+000  0.000000e+000
    endloop
  endfacet
  facet normal  -0.000000e+000  0.000000e+000 -1.000000e+000
    outer loop
      vertex -9.266573e-001 -1.772373e+000  0.000000e+000
      vertex  5.980113e-001 -1.908503e+000  0.000000e+000
      vertex -5.630791e-001 -1.919099e+000  0.000000e+000
    endloop
  endfacet
  facet normal  0.000000e+000  0.000000e+000 -9.999999e-001
    outer loop
      vertex -5.630791e-001 -1.919099e+000  0.000000e+000
      vertex  5.980113e-001 -1.908503e+000  0.000000e+000
      vertex  2.141903e-001 -1.988498e+000  0.000000e+000
    endloop
  endfacet
  facet normal  -0.000000e+000  0.000000e+000 -1.000000e+000
    outer loop
      vertex -5.630791e-001 -1.919099e+000  0.000000e+000
      vertex  2.141903e-001 -1.988498e+000  0.000000e+000
      vertex -1.778620e-001 -1.992076e+000  0.000000e+000
    endloop
  endfacet
  facet normal  4.663632e-001 -7.303284e-001  4.991250e-001
    outer loop
      vertex  0.000000e+000  0.000000e+000  2.692820e+001
      vertex  1.917702e+000 -3.510330e+000  2.000000e+001
      vertex  2.377831e+000 -3.216508e+000  2.000000e+001
    endloop
  endfacet
  facet normal  5.614657e-001 -6.600231e-001  4.991250e-001
    outer loop
      vertex  0.000000e+000  0.000000e+000  2.692820e+001
      vertex  2.377831e+000 -3.216508e+000  2.000000e+001
      vertex  2.793664e+000 -2.862768e+000  2.000000e+001
    endloop
  endfacet
  facet normal  6.461094e-001 -5.774227e-001  4.991250e-001
    outer loop
      vertex  0.000000e+000  0.000000e+000  2.692820e+001
      vertex  2.793664e+000 -2.862768e+000  2.000000e+001
      vertex  3.157458e+000 -2.455700e+000  2.000000e+001
    endloop
  endfacet
  facet normal  7.187173e-001 -4.840657e-001  4.991249e-001
    outer loop
      vertex  0.000000e+000  0.000000e+000  2.692820e+001
      vertex  3.157458e+000 -2.455700e+000  2.000000e+001
      vertex  3.462433e+000 -2.002887e+000  2.000000e+001
    endloop
  endfacet
  facet normal  7.779365e-001 -3.816922e-001  4.991250e-001
    outer loop
      vertex  0.000000e+000  0.000000e+000  2.692820e+001
      vertex  3.462433e+000 -2.002887e+000  2.000000e+001
      vertex  3.702910e+000 -1.512764e+000  2.000000e+001
    endloop
  endfacet
  facet normal  8.226647e-001 -2.722076e-001  4.991250e-001
    outer loop
      vertex  0.000000e+000  0.000000e+000  2.692820e+001
      vertex  3.702910e+000 -1.512764e+000  2.000000e+001
      vertex  3.874409e+000 -9.944612e-001  2.000000e+001
    endloop
  endfacet
  facet normal  8.520679e-001 -1.576532e-001  4.991250e-001
    outer loop
      vertex  0.000000e+000  0.000000e+000  2.692820e+001
      vertex  3.874409e+000 -9.944612e-001  2.000000e+001
      vertex  3.973735e+000 -4.576335e-001  2.000000e+001
    endloop
  endfacet
  facet normal  8.655989e-001 -4.016107e-002  4.991250e-001
    outer loop
      vertex  0.000000e+000  0.000000e+000  2.692820e+001
      vertex  3.973735e+000 -4.576335e-001  2.000000e+001
      vertex  3.999038e+000  8.771918e-002  2.000000e+001
    endloop
  endfacet
  facet normal  8.630053e-001  7.807846e-002  4.991250e-001
    outer loop
      vertex  0.000000e+000  0.000000e+000  2.692820e+001
      vertex  3.999038e+000  8.771918e-002  2.000000e+001
      vertex  3.949846e+000  6.314378e-001  2.000000e+001
    endloop
  endfacet
  facet normal  8.443354e-001  1.948637e-001  4.991250e-001
    outer loop
      vertex  0.000000e+000  0.000000e+000  2.692820e+001
      vertex  3.949846e+000  6.314378e-001  2.000000e+001
      vertex  3.827076e+000  1.163394e+000  2.000000e+001
    endloop
  endfacet
  facet normal  8.099374e-001  3.080190e-001  4.991250e-001
    outer loop
      vertex  0.000000e+000  0.000000e+000  2.692820e+001
      vertex  3.827076e+000  1.163394e+000  2.000000e+001
      vertex  3.633015e+000  1.673678e+000  2.000000e+001
    endloop
  endfacet
  facet normal  7.604517e-001  4.154364e-001  4.991250e-001
    outer loop
      vertex  0.000000e+000  0.000000e+000  2.692820e+001
      vertex  3.633015e+000  1.673678e+000  2.000000e+001
      vertex  3.371278e+000  2.152785e+000  2.000000e+001
    endloop
  endfacet
  facet normal  6.968001e-001  5.151154e-001  4.991250e-001
    outer loop
      vertex  0.000000e+000  0.000000e+000  2.692820e+001
      vertex  3.371278e+000  2.152785e+000  2.000000e+001
      vertex  3.046741e+000  2.591789e+000  2.000000e+001
    endloop
  endfacet
  facet normal  6.201685e-001  6.051984e-001  4.991250e-001
    outer loop
      vertex  0.000000e+000  0.000000e+000  2.692820e+001
      vertex  3.046741e+000  2.591789e+000  2.000000e+001
      vertex  2.665448e+000  2.982514e+000  2.000000e+001
    endloop
  endfacet
  facet normal  5.319843e-001  6.840080e-001  4.991250e-001
    outer loop
      vertex  0.000000e+000  0.000000e+000  2.692820e+001
      vertex  2.665448e+000  2.982514e+000  2.000000e+001
      vertex  2.234503e+000  3.317680e+000  2.000000e+001
    endloop
  endfacet
  facet normal  4.338904e-001  7.500755e-001  4.991250e-001
    outer loop
      vertex  0.000000e+000  0.000000e+000  2.692820e+001
      vertex  2.234503e+000  3.317680e+000  2.000000e+001
      vertex  1.761933e+000  3.591043e+000  2.000000e+001
    endloop
  endfacet
  facet normal  3.277138e-001  8.021708e-001  4.991250e-001
    outer loop
      vertex  0.000000e+000  0.000000e+000  2.692820e+001
      vertex  1.761933e+000  3.591043e+000  2.000000e+001
      vertex  1.256542e+000  3.797513e+000  2.000000e+001
    endloop
  endfacet
  facet normal  2.154329e-001  8.393229e-001  4.991250e-001
    outer loop
      vertex  0.000000e+000  0.000000e+000  2.692820e+001
      vertex  1.256542e+000  3.797513e+000  2.000000e+001
      vertex  7.277439e-001  3.933242e+000  2.000000e+001
    endloop
  endfacet
  facet normal  9.913816e-002  8.608402e-001  4.991250e-001
    outer loop
      vertex  0.000000e+000  0.000000e+000  2.692820e+001
      vertex  7.277439e-001  3.933242e+000  2.000000e+001
      vertex  1.853893e-001  3.995702e+000  2.000000e+001
    endloop
  endfacet
  facet normal -1.900297e-002  8.663216e-001  4.991250e-001
    outer loop
      vertex  0.000000e+000  0.000000e+000  2.692820e+001
      vertex  1.853893e-001  3.995702e+000  2.000000e+001
      vertex -3.604187e-001  3.983729e+000  2.000000e+001
    endloop
  endfacet
  facet normal -1.367899e-001  8.556651e-001  4.991250e-001
    outer loop
      vertex  0.000000e+000  0.000000e+000  2.692820e+001
      vertex -3.604187e-001  3.983729e+000  2.000000e+001
      vertex -8.995128e-001  3.897547e+000  2.000000e+001
    endloop
  endfacet
  facet normal -2.520289e-001  8.290691e-001  4.991250e-001
    outer loop
      vertex  0.000000e+000  0.000000e+000  2.692820e+001
      vertex -8.995128e-001  3.897547e+000  2.000000e+001
      vertex -1.421851e+000  3.738762e+000  2.000000e+001
    endloop
  endfacet
  facet normal -3.625731e-001  7.870292e-001  4.991250e-001
    outer loop
      vertex  0.000000e+000  0.000000e+000  2.692820e+001
      vertex -1.421851e+000  3.738762e+000  2.000000e+001
      vertex -1.917702e+000  3.510330e+000  2.000000e+001
    endloop
  endfacet
  facet normal -3.910989e-001  9.203487e-001  0.000000e+000
    outer loop
      vertex -9.588511e-001  1.755165e+000 -1.776357e-015
      vertex -9.588511e-001  1.755165e+000  2.000000e+001
      vertex -5.980113e-001  1.908503e+000  0.000000e+000
    endloop
  endfacet
  facet normal -3.910989e-001  9.203487e-001  0.000000e+000
    outer loop
      vertex -5.980113e-001  1.908503e+000  0.000000e+000
      vertex -9.588511e-001  1.755165e+000  2.000000e+001
      vertex -5.980113e-001  1.908503e+000  2.000000e+001
    endloop
  endfacet
  facet normal -2.040330e-001  9.789640e-001  0.000000e+000
    outer loop
      vertex -5.980113e-001  1.908503e+000  0.000000e+000
      vertex -5.980113e-001  1.908503e+000  2.000000e+001
      vertex -2.141903e-001  1.988498e+000  0.000000e+000
    endloop
  endfacet
  facet normal -2.040330e-001  9.789640e-001  0.000000e+000
    outer loop
      vertex -2.141903e-001  1.988498e+000  0.000000e+000
      vertex -5.980113e-001  1.908503e+000  2.000000e+001
      vertex -2.141903e-001  1.988498e+000  2.000000e+001
    endloop
  endfacet
  facet normal -9.125821e-003  9.999583e-001  0.000000e+000
    outer loop
      vertex -2.141903e-001  1.988498e+000  0.000000e+000
      vertex -2.141903e-001  1.988498e+000  2.000000e+001
      vertex  1.778620e-001  1.992076e+000  0.000000e+000
    endloop
  endfacet
  facet normal -9.125821e-003  9.999583e-001  0.000000e+000
    outer loop
      vertex  1.778620e-001  1.992076e+000  0.000000e+000
      vertex -2.141903e-001  1.988498e+000  2.000000e+001
      vertex  1.778620e-001  1.992076e+000  2.000000e+001
    endloop
  endfacet
  facet normal  1.861316e-001  9.825248e-001  0.000000e+000
    outer loop
      vertex  1.778620e-001  1.992076e+000  0.000000e+000
      vertex  1.778620e-001  1.992076e+000  2.000000e+001
      vertex  5.630791e-001  1.919099e+000  0.000000e+000
    endloop
  endfacet
  facet normal  1.861316e-001  9.825248e-001  -0.000000e+000
    outer loop
      vertex  5.630791e-001  1.919099e+000  0.000000e+000
      vertex  1.778620e-001  1.992076e+000  2.000000e+001
      vertex  5.630791e-001  1.919099e+000  2.000000e+001
    endloop
  endfacet
  facet normal  3.742359e-001  9.273335e-001  0.000000e+000
    outer loop
      vertex  5.630791e-001  1.919099e+000  0.000000e+000
      vertex  5.630791e-001  1.919099e+000  2.000000e+001
      vertex  9.266573e-001  1.772373e+000  0.000000e+000
    endloop
  endfacet
  facet normal  3.742359e-001  9.273335e-001  -0.000000e+000
    outer loop
      vertex  9.266573e-001  1.772373e+000  0.000000e+000
      vertex  5.630791e-001  1.919099e+000  2.000000e+001
      vertex  9.266573e-001  1.772373e+000  2.000000e+001
    endloop
  endfacet
  facet normal  5.479591e-001  8.365051e-001  0.000000e+000
    outer loop
      vertex  9.266573e-001  1.772373e+000  0.000000e+000
      vertex  9.266573e-001  1.772373e+000  2.000000e+001
      vertex  1.254625e+000  1.557536e+000  0.000000e+000
    endloop
  endfacet
  facet normal  5.479591e-001  8.365051e-001  -0.000000e+000
    outer loop
      vertex  1.254625e+000  1.557536e+000  0.000000e+000
      vertex  9.266573e-001  1.772373e+000  2.000000e+001
      vertex  1.254625e+000  1.557536e+000  2.000000e+001
    endloop
  endfacet
  facet normal  7.006243e-001  7.135304e-001  0.000000e+000
    outer loop
      vertex  1.254625e+000  1.557536e+000  0.000000e+000
      vertex  1.254625e+000  1.557536e+000  2.000000e+001
      vertex  1.534378e+000  1.282843e+000  0.000000e+000
    endloop
  endfacet
  facet normal  7.006243e-001  7.135304e-001  -0.000000e+000
    outer loop
      vertex  1.534378e+000  1.282843e+000  0.000000e+000
      vertex  1.254625e+000  1.557536e+000  2.000000e+001
      vertex  1.534378e+000  1.282843e+000  2.000000e+001
    endloop
  endfacet
  facet normal  8.263649e-001  5.631350e-001  0.000000e+000
    outer loop
      vertex  1.534378e+000  1.282843e+000  0.000000e+000
      vertex  1.534378e+000  1.282843e+000  2.000000e+001
      vertex  1.755165e+000  9.588511e-001  0.000000e+000
    endloop
  endfacet
  facet normal  8.263649e-001  5.631350e-001  -0.000000e+000
    outer loop
      vertex  1.755165e+000  9.588511e-001  0.000000e+000
      vertex  1.534378e+000  1.282843e+000  2.000000e+001
      vertex  1.755165e+000  9.588511e-001  2.000000e+001
    endloop
  endfacet
  facet normal  9.203487e-001  3.910989e-001  0.000000e+000
    outer loop
      vertex  1.755165e+000  9.588511e-001  0.000000e+000
      vertex  1.755165e+000  9.588511e-001  2.000000e+001
      vertex  1.908503e+000  5.980113e-001  0.000000e+000
    endloop
  endfacet
  facet normal  9.203487e-001  3.910989e-001  -0.000000e+000
    outer loop
      vertex  1.908503e+000  5.980113e-001  0.000000e+000
      vertex  1.755165e+000  9.588511e-001  2.000000e+001
      vertex  1.908503e+000  5.980113e-001  2.000000e+001
    endloop
  endfacet
  facet normal  9.789640e-001  2.040330e-001  0.000000e+000
    outer loop
      vertex  1.908503e+000  5.980113e-001  0.000000e+000
      vertex  1.908503e+000  5.980113e-001  2.000000e+001
      vertex  1.988498e+000  2.141903e-001  0.000000e+000
    endloop
  endfacet
  facet normal  9.789640e-001  2.040330e-001  -0.000000e+000
    outer loop
      vertex  1.988498e+000  2.141903e-001  0.000000e+000
      vertex  1.908503e+000  5.980113e-001  2.000000e+001
      vertex  1.988498e+000  2.141903e-001  2.000000e+001
    endloop
  endfacet
  facet normal  9.999583e-001  9.125821e-003  0.000000e+000
    outer loop
      vertex  1.988498e+000  2.141903e-001  0.000000e+000
      vertex  1.988498e+000  2.141903e-001  2.000000e+001
      vertex  1.992076e+000 -1.778620e-001  0.000000e+000
    endloop
  endfacet
  facet normal  9.999583e-001  9.125821e-003  -0.000000e+000
    outer loop
      vertex  1.992076e+000 -1.778620e-001  0.000000e+000
      vertex  1.988498e+000  2.141903e-001  2.000000e+001
      vertex  1.992076e+000 -1.778620e-001  2.000000e+001
    endloop
  endfacet
  facet normal  9.825248e-001 -1.861316e-001  0.000000e+000
    outer loop
      vertex  1.992076e+000 -1.778620e-001  0.000000e+000
      vertex  1.992076e+000 -1.778620e-001  2.000000e+001
      vertex  1.919099e+000 -5.630791e-001  0.000000e+000
    endloop
  endfacet
  facet normal  9.825248e-001 -1.861316e-001  0.000000e+000
    outer loop
      vertex  1.919099e+000 -5.630791e-001  0.000000e+000
      vertex  1.992076e+000 -1.778620e-001  2.000000e+001
      vertex  1.919099e+000 -5.630791e-001  2.000000e+001
    endloop
  endfacet
  facet normal  9.273335e-001 -3.742359e-001  0.000000e+000
    outer loop
      vertex  1.919099e+000 -5.630791e-001  0.000000e+000
      vertex  1.919099e+000 -5.630791e-001  2.000000e+001
      vertex  1.772373e+000 -9.266573e-001  0.000000e+000
    endloop
  endfacet
  facet normal  9.273335e-001 -3.742359e-001  0.000000e+000
    outer loop
      vertex  1.772373e+000 -9.266573e-001  0.000000e+000
      vertex  1.919099e+000 -5.630791e-001  2.000000e+001
      vertex  1.772373e+000 -9.266573e-001  2.000000e+001
    endloop
  endfacet
  facet normal  8.365051e-001 -5.479591e-001  0.000000e+000
    outer loop
      vertex  1.772373e+000 -9.266573e-001  0.000000e+000
      vertex  1.772373e+000 -9.266573e-001  2.000000e+001
      vertex  1.557536e+000 -1.254625e+000  0.000000e+000
    endloop
  endfacet
  facet normal  8.365051e-001 -5.479591e-001  0.000000e+000
    outer loop
      vertex  1.557536e+000 -1.254625e+000  0.000000e+000
      vertex  1.772373e+000 -9.266573e-001  2.000000e+001
      vertex  1.557536e+000 -1.254625e+000  2.000000e+001
    endloop
  endfacet
  facet normal  7.135304e-001 -7.006243e-001  0.000000e+000
    outer loop
      vertex  1.557536e+000 -1.254625e+000  0.000000e+000
      vertex  1.557536e+000 -1.254625e+000  2.000000e+001
      vertex  1.282843e+000 -1.534378e+000  0.000000e+000
    endloop
  endfacet
  facet normal  7.135304e-001 -7.006243e-001  0.000000e+000
    outer loop
      vertex  1.282843e+000 -1.534378e+000  0.000000e+000
      vertex  1.557536e+000 -1.254625e+000  2.000000e+001
      vertex  1.282843e+000 -1.534378e+000  2.000000e+001
    endloop
  endfacet
  facet normal  5.631350e-001 -8.263649e-001  0.000000e+000
    outer loop
      vertex  1.282843e+000 -1.534378e+000  0.000000e+000
      vertex  1.282843e+000 -1.534378e+000  2.000000e+001
      vertex  9.588511e-001 -1.755165e+000 -1.776357e-015
    endloop
  endfacet
  facet normal  5.631350e-001 -8.263649e-001  0.000000e+000
    outer loop
      vertex  9.588511e-001 -1.755165e+000 -1.776357e-015
      vertex  1.282843e+000 -1.534378e+000  2.000000e+001
      vertex  9.588511e-001 -1.755165e+000  2.000000e+001
    endloop
  endfacet
  facet normal -4.663632e-001  7.303284e-001  4.991250e-001
    outer loop
      vertex  0.000000e+000  0.000000e+000  2.692820e+001
      vertex -1.917702e+000  3.510330e+000  2.000000e+001
      vertex -2.377831e+000  3.216508e+000  2.000000e+001
    endloop
  endfacet
  facet normal -5.614657e-001  6.600231e-001  4.991250e-001
    outer loop
      vertex  0.000000e+000  0.000000e+000  2.692820e+001
      vertex -2.377831e+000  3.216508e+000  2.000000e+001
      vertex -2.793664e+000  2.862768e+000  2.000000e+001
    endloop
  endfacet
  facet normal -6.461094e-001  5.774227e-001  4.991250e-001
    outer loop
      vertex  0.000000e+000  0.000000e+000  2.692820e+001
      vertex -2.793664e+000  2.862768e+000  2.000000e+001
      vertex -3.157458e+000  2.455700e+000  2.000000e+001
    endloop
  endfacet
  facet normal -7.187173e-001  4.840657e-001  4.991249e-001
    outer loop
      vertex  0.000000e+000  0.000000e+000  2.692820e+001
      vertex -3.157458e+000  2.455700e+000  2.000000e+001
      vertex -3.462433e+000  2.002887e+000  2.000000e+001
    endloop
  endfacet
  facet normal -7.779365e-001  3.816922e-001  4.991250e-001
    outer loop
      vertex  0.000000e+000  0.000000e+000  2.692820e+001
      vertex -3.462433e+000  2.002887e+000  2.000000e+001
      vertex -3.702910e+000  1.512764e+000  2.000000e+001
    endloop
  endfacet
  facet normal -8.226647e-001  2.722076e-001  4.991250e-001
    outer loop
      vertex  0.000000e+000  0.000000e+000  2.692820e+001
      vertex -3.702910e+000  1.512764e+000  2.000000e+001
      vertex -3.874409e+000  9.944612e-001  2.000000e+001
    endloop
  endfacet
  facet normal -8.520679e-001  1.576532e-001  4.991250e-001
    outer loop
      vertex  0.000000e+000  0.000000e+000  2.692820e+001
      vertex -3.874409e+000  9.944612e-001  2.000000e+001
      vertex -3.973735e+000  4.576335e-001  2.000000e+001
    endloop
  endfacet
  facet normal -8.655989e-001  4.016107e-002  4.991250e-001
    outer loop
      vertex  0.000000e+000  0.000000e+000  2.692820e+001
      vertex -3.973735e+000  4.576335e-001  2.000000e+001
      vertex -3.999038e+000 -8.771918e-002  2.000000e+001
    endloop
  endfacet
  facet normal -8.630053e-001 -7.807846e-002  4.991250e-001
    outer loop
      vertex  0.000000e+000  0.000000e+000  2.692820e+001
      vertex -3.999038e+000 -8.771918e-002  2.000000e+001
      vertex -3.949846e+000 -6.314378e-001  2.000000e+001
    endloop
  endfacet
  facet normal -8.443354e-001 -1.948637e-001  4.991250e-001
    outer loop
      vertex  0.000000e+000  0.000000e+000  2.692820e+001
      vertex -3.949846e+000 -6.314378e-001  2.000000e+001
      vertex -3.827076e+000 -1.163394e+000  2.000000e+001
    endloop
  endfacet
  facet normal -8.099374e-001 -3.080190e-001  4.991250e-001
    outer loop
      vertex  0.000000e+000  0.000000e+000  2.692820e+001
      vertex -3.827076e+000 -1.163394e+000  2.000000e+001
      vertex -3.633015e+000 -1.673678e+000  2.000000e+001
    endloop
  endfacet
  facet normal -7.604517e-001 -4.154364e-001  4.991250e-001
    outer loop
      vertex  0.000000e+000  0.000000e+000  2.692820e+001
      vertex -3.633015e+000 -1.673678e+000  2.000000e+001
      vertex -3.371278e+000 -2.152785e+000  2.000000e+001
    endloop
  endfacet
  facet normal -6.968001e-001 -5.151154e-001  4.991250e-001
    outer loop
      vertex  0.000000e+000  0.000000e+000  2.692820e+001
      vertex -3.371278e+000 -2.152785e+000  2.000000e+001
      vertex -3.046741e+000 -2.591789e+000  2.000000e+001
    endloop
  endfacet
  facet normal -6.201685e-001 -6.051984e-001  4.991250e-001
    outer loop
      vertex  0.000000e+000  0.000000e+000  2.692820e+001
      vertex -3.046741e+000 -2.591789e+000  2.000000e+001
      vertex -2.665448e+000 -2.982514e+000  2.000000e+001
    endloop
  endfacet
  facet normal -5.319843e-001 -6.840080e-001  4.991250e-001
    outer loop
      vertex  0.000000e+000  0.000000e+000  2.692820e+001
      vertex -2.665448e+000 -2.982514e+000  2.000000e+001
      vertex -2.234503e+000 -3.317680e+000  2.000000e+001
    endloop
  endfacet
  facet normal -4.338904e-001 -7.500755e-001  4.991250e-001
    outer loop
      vertex  0.000000e+000  0.000000e+000  2.692820e+001
      vertex -2.234503e+000 -3.317680e+000  2.000000e+001
      vertex -1.761933e+000 -3.591043e+000  2.000000e+001
    endloop
  endfacet
  facet normal -3.277138e-001 -8.021708e-001  4.991250e-001
    outer loop
      vertex  0.000000e+000  0.000000e+000  2.692820e+001
      vertex -1.761933e+000 -3.591043e+000  2.000000e+001
      vertex -1.256542e+000 -3.797513e+000  2.000000e+001
    endloop
  endfacet
  facet normal -2.154329e-001 -8.393229e-001  4.991250e-001
    outer loop
      vertex  0.000000e+000  0.000000e+000  2.692820e+001
      vertex -1.256542e+000 -3.797513e+000  2.000000e+001
      vertex -7.277439e-001 -3.933242e+000  2.000000e+001
    endloop
  endfacet
  facet normal -9.913816e-002 -8.608402e-001  4.991250e-001
    outer loop
      vertex  0.000000e+000  0.000000e+000  2.692820e+001
      vertex -7.277439e-001 -3.933242e+000  2.000000e+001
      vertex -1.853893e-001 -3.995702e+000  2.000000e+001
    endloop
  endfacet
  facet normal  1.900297e-002 -8.663216e-001  4.991250e-001
    outer loop
      vertex  0.000000e+000  0.000000e+000  2.692820e+001
      vertex -1.853893e-001 -3.995702e+000  2.000000e+001
      vertex  3.604187e-001 -3.983729e+000  2.000000e+001
    endloop
  endfacet
  facet normal  1.367899e-001 -8.556651e-001  4.991250e-001
    outer loop
      vertex  0.000000e+000  0.000000e+000  2.692820e+001
      vertex  3.604187e-001 -3.983729e+000  2.000000e+001
      vertex  8.995128e-001 -3.897547e+000  2.000000e+001
    endloop
  endfacet
  facet normal  2.520289e-001 -8.290691e-001  4.991250e-001
    outer loop
      vertex  0.000000e+000  0.000000e+000  2.692820e+001
      vertex  8.995128e-001 -3.897547e+000  2.000000e+001
      vertex  1.421851e+000 -3.738762e+000  2.000000e+001
    endloop
  endfacet
  facet normal  3.625731e-001 -7.870292e-001  4.991250e-001
    outer loop
      vertex  0.000000e+000  0.000000e+000  2.692820e+001
      vertex  1.421851e+000 -3.738762e+000  2.000000e+001
      vertex  1.917702e+000 -3.510330e+000  2.000000e+001
    endloop
  endfacet
  facet normal  3.910989e-001 -9.203487e-001  0.000000e+000
    outer loop
      vertex  9.588511e-001 -1.755165e+000 -1.776357e-015
      vertex  9.588511e-001 -1.755165e+000  2.000000e+001
      vertex  5.980113e-001 -1.908503e+000  0.000000e+000
    endloop
  endfacet
  facet normal  3.910989e-001 -9.203487e-001  0.000000e+000
    outer loop
      vertex  5.980113e-001 -1.908503e+000  0.000000e+000
      vertex  9.588511e-001 -1.755165e+000  2.000000e+001
      vertex  5.980113e-001 -1.908503e+000  2.000000e+001
    endloop
  endfacet
  facet normal  2.040330e-001 -9.789640e-001  0.000000e+000
    outer loop
      vertex  5.980113e-001 -1.908503e+000  0.000000e+000
      vertex  5.980113e-001 -1.908503e+000  2.000000e+001
      vertex  2.141903e-001 -1.988498e+000  0.000000e+000
    endloop
  endfacet
  facet normal  2.040330e-001 -9.789640e-001  0.000000e+000
    outer loop
      vertex  2.141903e-001 -1.988498e+000  0.000000e+000
      vertex  5.980113e-001 -1.908503e+000  2.000000e+001
      vertex  2.141903e-001 -1.988498e+000  2.000000e+001
    endloop
  endfacet
  facet normal  9.125821e-003 -9.999583e-001  0.000000e+000
    outer loop
      vertex  2.141903e-001 -1.988498e+000  0.000000e+000
      vertex  2.141903e-001 -1.988498e+000  2.000000e+001
      vertex -1.778620e-001 -1.992076e+000  0.000000e+000
    endloop
  endfacet
  facet normal  9.125821e-003 -9.999583e-001  0.000000e+000
    outer loop
      vertex -1.778620e-001 -1.992076e+000  0.000000e+000
      vertex  2.141903e-001 -1.988498e+000  2.000000e+001
      vertex -1.778620e-001 -1.992076e+000  2.000000e+001
    endloop
  endfacet
  facet normal -1.861316e-001 -9.825248e-001  -0.000000e+000
    outer loop
      vertex -1.778620e-001 -1.992076e+000  0.000000e+000
      vertex -1.778620e-001 -1.992076e+000  2.000000e+001
      vertex -5.630791e-001 -1.919099e+000  0.000000e+000
    endloop
  endfacet
  facet normal -1.861316e-001 -9.825248e-001  0.000000e+000
    outer loop
      vertex -5.630791e-001 -1.919099e+000  0.000000e+000
      vertex -1.778620e-001 -1.992076e+000  2.000000e+001
      vertex -5.630791e-001 -1.919099e+000  2.000000e+001
    endloop
  endfacet
  facet normal -3.742359e-001 -9.273335e-001  -0.000000e+000
    outer loop
      vertex -5.630791e-001 -1.919099e+000  0.000000e+000
      vertex -5.630791e-001 -1.919099e+000  2.000000e+001
      vertex -9.266573e-001 -1.772373e+000  0.000000e+000
    endloop
  endfacet
  facet normal -3.742359e-001 -9.273335e-001  0.000000e+000
    outer loop
      vertex -9.266573e-001 -1.772373e+000  0.000000e+000
      vertex -5.630791e-001 -1.919099e+000  2.000000e+001
      vertex -9.266573e-001 -1.772373e+000  2.000000e+001
    endloop
  endfacet
  facet normal -5.479591e-001 -8.365051e-001  -0.000000e+000
    outer loop
      vertex -9.266573e-001 -1.772373e+000  0.000000e+000
      vertex -9.266573e-001 -1.772373e+000  2.000000e+001
      vertex -1.254625e+000 -1.557536e+000  0.000000e+000
    endloop
  endfacet
  facet normal -5.479591e-001 -8.365051e-001  0.000000e+000
    outer loop
      vertex -1.254625e+000 -1.557536e+000  0.000000e+000
      vertex -9.266573e-001 -1.772373e+000  2.000000e+001
      vertex -1.254625e+000 -1.557536e+000  2.000000e+001
    endloop
  endfacet
  facet normal -7.006243e-001 -7.135304e-001  -0.000000e+000
    outer loop
      vertex -1.254625e+000 -1.557536e+000  0.000000e+000
      vertex -1.254625e+000 -1.557536e+000  2.000000e+001
      vertex -1.534378e+000 -1.282843e+000  0.000000e+000
    endloop
  endfacet
  facet normal -7.006243e-001 -7.135304e-001  0.000000e+000
    outer loop
      vertex -1.534378e+000 -1.282843e+000  0.000000e+000
      vertex -1.254625e+000 -1.557536e+000  2.000000e+001
      vertex -1.534378e+000 -1.282843e+000  2.000000e+001
    endloop
  endfacet
  facet normal -8.263649e-001 -5.631350e-001  -0.000000e+000
    outer loop
      vertex -1.534378e+000 -1.282843e+000  0.000000e+000
      vertex -1.534378e+000 -1.282843e+000  2.000000e+001
      vertex -1.755165e+000 -9.588511e-001  0.000000e+000
    endloop
  endfacet
  facet normal -8.263649e-001 -5.631350e-001  0.000000e+000
    outer loop
      vertex -1.755165e+000 -9.588511e-001  0.000000e+000
      vertex -1.534378e+000 -1.282843e+000  2.000000e+001
      vertex -1.755165e+000 -9.588511e-001  2.000000e+001
    endloop
  endfacet
  facet normal -9.203487e-001 -3.910989e-001  -0.000000e+000
    outer loop
      vertex -1.755165e+000 -9.588511e-001  0.000000e+000
      vertex -1.755165e+000 -9.588511e-001  2.000000e+001
      vertex -1.908503e+000 -5.980113e-001  0.000000e+000
    endloop
  endfacet
  facet normal -9.203487e-001 -3.910989e-001  0.000000e+000
    outer loop
      vertex -1.908503e+000 -5.980113e-001  0.000000e+000
      vertex -1.755165e+000 -9.588511e-001  2.000000e+001
      vertex -1.908503e+000 -5.980113e-001  2.000000e+001
    endloop
  endfacet
  facet normal -9.789640e-001 -2.040330e-001  -0.000000e+000
    outer loop
      vertex -1.908503e+000 -5.980113e-001  0.000000e+000
      vertex -1.908503e+000 -5.980113e-001  2.000000e+001
      vertex -1.988498e+000 -2.141903e-001  0.000000e+000
    endloop
  endfacet
  facet normal -9.789640e-001 -2.040330e-001  0.000000e+000
    outer loop
      vertex -1.988498e+000 -2.141903e-001  0.000000e+000
      vertex -1.908503e+000 -5.980113e-001  2.000000e+001
      vertex -1.988498e+000 -2.141903e-001  2.000000e+001
    endloop
  endfacet
  facet normal -9.999583e-001 -9.125821e-003  -0.000000e+000
    outer loop
      vertex -1.988498e+000 -2.141903e-001  0.000000e+000
      vertex -1.988498e+000 -2.141903e-001  2.000000e+001
      vertex -1.992076e+000  1.778620e-001  0.000000e+000
    endloop
  endfacet
  facet normal -9.999583e-001 -9.125821e-003  0.000000e+000
    outer loop
      vertex -1.992076e+000  1.778620e-001  0.000000e+000
      vertex -1.988498e+000 -2.141903e-001  2.000000e+001
      vertex -1.992076e+000  1.778620e-001  2.000000e+001
    endloop
  endfacet
  facet normal -9.825248e-001  1.861316e-001  0.000000e+000
    outer loop
      vertex -1.992076e+000  1.778620e-001  0.000000e+000
      vertex -1.992076e+000  1.778620e-001  2.000000e+001
      vertex -1.919099e+000  5.630791e-001  0.000000e+000
    endloop
  endfacet
  facet normal -9.825248e-001  1.861316e-001  0.000000e+000
    outer loop
      vertex -1.919099e+000  5.630791e-001  0.000000e+000
      vertex -1.992076e+000  1.778620e-001  2.000000e+001
      vertex -1.919099e+000  5.630791e-001  2.000000e+001
    endloop
  endfacet
  facet normal -9.273335e-001  3.742359e-001  0.000000e+000
    outer loop
      vertex -1.919099e+000  5.630791e-001  0.000000e+000
      vertex -1.919099e+000  5.630791e-001  2.000000e+001
      vertex -1.772373e+000  9.266573e-001  0.000000e+000
    endloop
  endfacet
  facet normal -9.273335e-001  3.742359e-001  0.000000e+000
    outer loop
      vertex -1.772373e+000  9.266573e-001  0.000000e+000
      vertex -1.919099e+000  5.630791e-001  2.000000e+001
      vertex -1.772373e+000  9.266573e-001  2.000000e+001
    endloop
  endfacet
  facet normal -8.365051e-001  5.479591e-001  0.000000e+000
    outer loop
      vertex -1.772373e+000  9.266573e-001  0.000000e+000
      vertex -1.772373e+000  9.266573e-001  2.000000e+001
      vertex -1.557536e+000  1.254625e+000  0.000000e+000
    endloop
  endfacet
  facet normal -8.365051e-001  5.479591e-001  0.000000e+000
    outer loop
      vertex -1.557536e+000  1.254625e+000  0.000000e+000
      vertex -1.772373e+000  9.266573e-001  2.000000e+001
      vertex -1.557536e+000  1.254625e+000  2.000000e+001
    endloop
  endfacet
  facet normal -7.135304e-001  7.006243e-001  0.000000e+000
    outer loop
      vertex -1.557536e+000  1.254625e+000  0.000000e+000
      vertex -1.557536e+000  1.254625e+000  2.000000e+001
      vertex -1.282843e+000  1.534378e+000  0.000000e+000
    endloop
  endfacet
  facet normal -7.135304e-001  7.006243e-001  0.000000e+000
    outer loop
      vertex -1.282843e+000  1.534378e+000  0.000000e+000
      vertex -1.557536e+000  1.254625e+000  2.000000e+001
      vertex -1.282843e+000  1.534378e+000  2.000000e+001
    endloop
  endfacet
  facet normal -5.631350e-001  8.263649e-001  0.000000e+000
    outer loop
      vertex -1.282843e+000  1.534378e+000  0.000000e+000
      vertex -1.282843e+000  1.534378e+000  2.000000e+001
      vertex -9.588511e-001  1.755165e+000 -1.776357e-015
    endloop
  endfacet
  facet normal -5.631350e-001  8.263649e-001  0.000000e+000
    outer loop
      vertex -9.588511e-001  1.755165e+000 -1.776357e-015
      vertex -1.282843e+000  1.534378e+000  2.000000e+001
      vertex -9.588511e-001  1.755165e+000  2.000000e+001
    endloop
  endfacet
endsolid CATIA STL
